<mxfile host="app.diagrams.net" modified="2022-07-11T02:00:59.832Z" agent="5.0 (Windows NT 10.0; Win64; x64) AppleWebKit/537.36 (KHTML, like Gecko) Chrome/103.0.0.0 Safari/537.36" etag="uMr_NKnGtaRuO2sxeBjx" version="20.0.3" type="github">
  <diagram id="5r78IRElx1SBGNGV_JD2" name="Page-1">
    <mxGraphModel dx="700" dy="752" grid="1" gridSize="10" guides="1" tooltips="1" connect="1" arrows="1" fold="1" page="1" pageScale="1" pageWidth="827" pageHeight="1169" math="0" shadow="0">
      <root>
        <mxCell id="0" />
        <mxCell id="1" parent="0" />
        <mxCell id="8ixmhv7uL6WkX3862A0N-1" value="Cliente   " style="swimlane;fontStyle=1;align=center;verticalAlign=top;childLayout=stackLayout;horizontal=1;startSize=26;horizontalStack=0;resizeParent=1;resizeParentMax=0;resizeLast=0;collapsible=1;marginBottom=0;" vertex="1" parent="1">
          <mxGeometry x="290" y="160" width="390" height="160" as="geometry" />
        </mxCell>
        <mxCell id="8ixmhv7uL6WkX3862A0N-2" value="- nombre: String&#xa;- tipo: String&#xa;- compras: &lt;Compra&gt;" style="text;strokeColor=none;fillColor=none;align=left;verticalAlign=top;spacingLeft=4;spacingRight=4;overflow=hidden;rotatable=0;points=[[0,0.5],[1,0.5]];portConstraint=eastwest;" vertex="1" parent="8ixmhv7uL6WkX3862A0N-1">
          <mxGeometry y="26" width="390" height="64" as="geometry" />
        </mxCell>
        <mxCell id="8ixmhv7uL6WkX3862A0N-3" value="" style="line;strokeWidth=1;fillColor=none;align=left;verticalAlign=middle;spacingTop=-1;spacingLeft=3;spacingRight=3;rotatable=0;labelPosition=right;points=[];portConstraint=eastwest;" vertex="1" parent="8ixmhv7uL6WkX3862A0N-1">
          <mxGeometry y="90" width="390" height="8" as="geometry" />
        </mxCell>
        <mxCell id="8ixmhv7uL6WkX3862A0N-4" value="+ comprar(productos: &lt;Producto&gt;): Compra&#xa;+ montoAcumuladoEnCompras(): double" style="text;strokeColor=none;fillColor=none;align=left;verticalAlign=top;spacingLeft=4;spacingRight=4;overflow=hidden;rotatable=0;points=[[0,0.5],[1,0.5]];portConstraint=eastwest;" vertex="1" parent="8ixmhv7uL6WkX3862A0N-1">
          <mxGeometry y="98" width="390" height="62" as="geometry" />
        </mxCell>
        <mxCell id="8ixmhv7uL6WkX3862A0N-5" value="Compra" style="swimlane;fontStyle=1;align=center;verticalAlign=top;childLayout=stackLayout;horizontal=1;startSize=26;horizontalStack=0;resizeParent=1;resizeParentMax=0;resizeLast=0;collapsible=1;marginBottom=0;" vertex="1" parent="1">
          <mxGeometry x="80" y="410" width="390" height="98" as="geometry" />
        </mxCell>
        <mxCell id="8ixmhv7uL6WkX3862A0N-6" value="- productos: &lt;Producto&gt;&#xa;- subtotal: real&#xa;- envio: real&#xa;- estado: String" style="text;strokeColor=none;fillColor=none;align=left;verticalAlign=top;spacingLeft=4;spacingRight=4;overflow=hidden;rotatable=0;points=[[0,0.5],[1,0.5]];portConstraint=eastwest;" vertex="1" parent="8ixmhv7uL6WkX3862A0N-5">
          <mxGeometry y="26" width="390" height="64" as="geometry" />
        </mxCell>
        <mxCell id="8ixmhv7uL6WkX3862A0N-7" value="" style="line;strokeWidth=1;fillColor=none;align=left;verticalAlign=middle;spacingTop=-1;spacingLeft=3;spacingRight=3;rotatable=0;labelPosition=right;points=[];portConstraint=eastwest;" vertex="1" parent="8ixmhv7uL6WkX3862A0N-5">
          <mxGeometry y="90" width="390" height="8" as="geometry" />
        </mxCell>
        <mxCell id="8ixmhv7uL6WkX3862A0N-9" value="Producto" style="swimlane;fontStyle=1;align=center;verticalAlign=top;childLayout=stackLayout;horizontal=1;startSize=26;horizontalStack=0;resizeParent=1;resizeParentMax=0;resizeLast=0;collapsible=1;marginBottom=0;" vertex="1" parent="1">
          <mxGeometry x="600" y="410" width="390" height="98" as="geometry" />
        </mxCell>
        <mxCell id="8ixmhv7uL6WkX3862A0N-10" value="- descripcion: String&#xa;- precio: real" style="text;strokeColor=none;fillColor=none;align=left;verticalAlign=top;spacingLeft=4;spacingRight=4;overflow=hidden;rotatable=0;points=[[0,0.5],[1,0.5]];portConstraint=eastwest;" vertex="1" parent="8ixmhv7uL6WkX3862A0N-9">
          <mxGeometry y="26" width="390" height="64" as="geometry" />
        </mxCell>
        <mxCell id="8ixmhv7uL6WkX3862A0N-11" value="" style="line;strokeWidth=1;fillColor=none;align=left;verticalAlign=middle;spacingTop=-1;spacingLeft=3;spacingRight=3;rotatable=0;labelPosition=right;points=[];portConstraint=eastwest;" vertex="1" parent="8ixmhv7uL6WkX3862A0N-9">
          <mxGeometry y="90" width="390" height="8" as="geometry" />
        </mxCell>
        <mxCell id="8ixmhv7uL6WkX3862A0N-12" value="" style="endArrow=open;endFill=1;endSize=12;html=1;rounded=0;entryX=0.008;entryY=0.031;entryDx=0;entryDy=0;entryPerimeter=0;" edge="1" parent="1" source="8ixmhv7uL6WkX3862A0N-6" target="8ixmhv7uL6WkX3862A0N-10">
          <mxGeometry width="160" relative="1" as="geometry">
            <mxPoint x="300" y="370" as="sourcePoint" />
            <mxPoint x="460" y="370" as="targetPoint" />
          </mxGeometry>
        </mxCell>
        <mxCell id="8ixmhv7uL6WkX3862A0N-13" value="0..*&lt;br&gt;productos" style="text;html=1;align=center;verticalAlign=middle;resizable=0;points=[];autosize=1;strokeColor=none;fillColor=none;" vertex="1" parent="1">
          <mxGeometry x="510" y="450" width="80" height="40" as="geometry" />
        </mxCell>
        <mxCell id="8ixmhv7uL6WkX3862A0N-14" value="" style="endArrow=open;endFill=1;endSize=12;html=1;rounded=0;" edge="1" parent="1" source="8ixmhv7uL6WkX3862A0N-4" target="8ixmhv7uL6WkX3862A0N-5">
          <mxGeometry width="160" relative="1" as="geometry">
            <mxPoint x="480" y="460.1616481774961" as="sourcePoint" />
            <mxPoint x="613.1199999999999" y="447.9839999999999" as="targetPoint" />
          </mxGeometry>
        </mxCell>
        <mxCell id="8ixmhv7uL6WkX3862A0N-15" value="0..*&lt;br&gt;comrpas" style="text;html=1;align=center;verticalAlign=middle;resizable=0;points=[];autosize=1;strokeColor=none;fillColor=none;" vertex="1" parent="1">
          <mxGeometry x="400" y="350" width="70" height="40" as="geometry" />
        </mxCell>
      </root>
    </mxGraphModel>
  </diagram>
</mxfile>
